<svg xmlns="http://www.w3.org/2000/svg" xmlns:xlink="http://www.w3.org/1999/xlink" width="100%" height="100%" version="1.1" viewBox="0 0 140 140" xml:space="preserve" style="fill-rule:evenodd;clip-rule:evenodd;stroke-linejoin:round;stroke-miterlimit:2"><g><path d="M90,100L50,100C44.477,100 40,95.523 40,90L40,50C40,44.477 44.477,40 50,40L90,40C95.523,40 100,44.477 100,50L100,90C100,95.523 95.523,100 90,100Z" style="fill:#233a6c;fill-rule:nonzero;stroke:#233a6c;stroke-width:1px"/><path d="M70,50.493C58.95,50.493 50,59.443 50,70.493C50,79.343 55.725,86.818 63.675,89.468C64.675,89.643 65.05,89.043 65.05,88.518C65.05,88.043 65.025,86.468 65.025,84.793C60,85.718 58.7,83.568 58.3,82.443C58.075,81.868 57.1,80.093 56.25,79.618C55.55,79.243 54.55,78.318 56.225,78.293C57.8,78.268 58.925,79.743 59.3,80.343C61.1,83.368 63.975,82.518 65.125,81.993C65.3,80.693 65.825,79.818 66.4,79.318C61.95,78.818 57.3,77.093 57.3,69.443C57.3,67.268 58.075,65.468 59.35,64.068C59.15,63.568 58.45,61.518 59.55,58.768C59.55,58.768 61.225,58.243 65.05,60.818C66.65,60.368 68.35,60.143 70.05,60.143C71.75,60.143 73.45,60.368 75.05,60.818C78.875,58.218 80.55,58.768 80.55,58.768C81.65,61.518 80.95,63.568 80.75,64.068C82.025,65.468 82.8,67.243 82.8,69.443C82.8,77.118 78.125,78.818 73.675,79.318C74.4,79.943 75.025,81.143 75.025,83.018C75.025,85.693 75,87.843 75,88.518C75,89.043 75.375,89.668 76.375,89.468C84.516,86.72 89.998,79.086 90,70.493C90,59.443 81.05,50.493 70,50.493Z" style="fill:#d1e0d0;fill-rule:nonzero"/></g></svg>