<?xml version="1.0" encoding="UTF-8" standalone="no"?>
<!DOCTYPE svg PUBLIC "-//W3C//DTD SVG 1.1//EN" "http://www.w3.org/Graphics/SVG/1.1/DTD/svg11.dtd">
<svg width="100%" height="100%" viewBox="0 0 523 686" version="1.1" xmlns="http://www.w3.org/2000/svg" xmlns:xlink="http://www.w3.org/1999/xlink" xml:space="preserve" xmlns:serif="http://www.serif.com/" style="fill-rule:evenodd;clip-rule:evenodd;stroke-linejoin:round;stroke-miterlimit:2;">
    <g>
        <path d="M122.2,387.256C122.116,387.257 122.033,387.257 121.949,387.257C106.808,387.257 94.349,374.798 94.349,359.657C94.349,344.516 106.808,332.057 121.949,332.057C137.089,332.057 149.548,344.516 149.549,359.656C149.601,374.722 137.266,387.171 122.2,387.256ZM122.2,336.009C122.128,336.008 122.057,336.008 121.985,336.008C109.012,336.008 98.336,346.684 98.336,359.657C98.336,372.63 109.012,383.306 121.985,383.306C134.958,383.306 145.634,372.63 145.634,359.657C145.634,359.657 145.634,359.657 145.634,359.657C145.677,346.748 135.108,336.083 122.2,336.009Z" style="fill:white;fill-rule:nonzero;stroke:white;stroke-width:1px;"/>
        <path d="M217.086,685.36C215.141,685.5 213.226,684.802 211.828,683.443C209.021,680.352 211.028,675.819 214.078,672.914C221.91,665.527 232.021,661.013 242.749,660.114C247.992,659.662 257.385,661.654 260.9,667.36C262.273,669.589 263.281,673.296 260.286,678.303C257.457,683.03 251.019,683.403 247.924,683.589L218.46,685.31C218.07,685.332 217.6,685.36 217.086,685.36ZM244.277,664C243.858,664 243.46,664.016 243.082,664.049C233.236,664.871 223.954,669.011 216.765,675.788C215.065,677.404 213.802,679.769 214.715,680.773C215.321,681.441 216.762,681.453 218.234,681.366L247.698,679.641C251.581,679.415 255.386,678.847 256.936,676.257C258.536,673.576 258.75,671.347 257.577,669.443C255.373,665.867 248.776,664 244.277,664Z" style="fill:white;fill-rule:nonzero;stroke:white;stroke-width:1px;"/>
        <path d="M322.256,671.672C320.736,671.72 319.275,671.068 318.296,669.905C316.735,668.043 316.736,665.433 318.296,662.148C322.814,652.807 329.87,644.922 338.655,639.4C342.325,637.1 352.326,633.245 358.143,636.8C360.109,638 362.369,640.548 361.98,645.873C361.612,650.933 356.47,653.817 354,655.203L327.7,669.958C326.061,670.984 324.187,671.574 322.256,671.672ZM321.827,663.857C321.027,665.538 320.827,666.812 321.285,667.357C321.946,668.146 324.032,667.498 325.803,666.505L352.103,651.75C354.954,650.15 357.894,648.167 358.082,645.583C358.375,641.554 356.682,640.52 356.123,640.183C352.572,638.019 344.766,640.227 340.728,642.761C332.575,647.881 326.025,655.193 321.827,663.857Z" style="fill:white;fill-rule:nonzero;stroke:white;stroke-width:1px;"/>
        <path d="M332.214,50.823L190.689,50.823L190.689,23.723L332.214,23.723L332.214,50.823ZM194.6,46.873L328.3,46.873L328.3,27.678L194.6,27.678L194.6,46.873Z" style="fill:white;fill-rule:nonzero;stroke:white;stroke-width:1px;"/>
        <path d="M332.214,130.18L190.689,130.18L190.689,103.08L332.214,103.08L332.214,130.18ZM194.6,126.229L328.3,126.229L328.3,107.034L194.6,107.034L194.6,126.229Z" style="fill:white;fill-rule:nonzero;stroke:white;stroke-width:1px;"/>
        <path d="M332.214,209.536L190.689,209.536L190.689,182.436L332.214,182.436L332.214,209.536ZM194.604,205.586L328.3,205.586L328.3,186.386L194.6,186.386L194.604,205.586Z" style="fill:white;fill-rule:nonzero;stroke:white;stroke-width:1px;"/>
        <path d="M331.18,288.894L191.959,288.894L191.959,261.8L331.18,261.8L331.18,288.894ZM195.873,284.943L327.266,284.943L327.266,265.748L195.873,265.748L195.873,284.943Z" style="fill:white;fill-rule:nonzero;stroke:white;stroke-width:1px;"/>
        <path d="M122.2,69.835C122.117,69.836 122.033,69.836 121.95,69.836C106.809,69.836 94.35,57.377 94.35,42.236C94.35,27.095 106.809,14.636 121.95,14.636C137.09,14.636 149.549,27.095 149.55,42.235C149.601,57.301 137.266,69.749 122.2,69.835ZM122.2,18.585C122.128,18.584 122.056,18.584 121.984,18.584C109.009,18.584 98.333,29.26 98.333,42.235C98.333,55.21 109.009,65.886 121.984,65.886C134.959,65.886 145.635,55.21 145.635,42.235C145.635,42.235 145.635,42.235 145.635,42.235C145.678,29.326 135.109,18.659 122.2,18.585Z" style="fill:white;fill-rule:nonzero;stroke:white;stroke-width:1px;"/>
        <path d="M122.2,149.193C122.117,149.194 122.033,149.194 121.95,149.194C106.809,149.194 94.35,136.735 94.35,121.594C94.35,106.453 106.809,93.994 121.95,93.994C137.09,93.994 149.549,106.453 149.55,121.593C149.601,136.659 137.265,149.107 122.2,149.193ZM122.2,97.941C122.128,97.94 122.056,97.94 121.984,97.94C109.009,97.94 98.333,108.616 98.333,121.591C98.333,134.566 109.009,145.242 121.984,145.242C134.959,145.242 145.635,134.566 145.635,121.591C145.635,121.591 145.635,121.591 145.635,121.591C145.678,108.682 135.109,98.015 122.2,97.941Z" style="fill:white;fill-rule:nonzero;stroke:white;stroke-width:1px;"/>
        <path d="M122.2,228.549C122.117,228.55 122.033,228.55 121.95,228.55C106.809,228.55 94.35,216.091 94.35,200.95C94.35,185.809 106.809,173.35 121.95,173.35C137.09,173.35 149.549,185.809 149.55,200.949C149.601,216.015 137.266,228.463 122.2,228.549ZM122.2,177.298C122.128,177.297 122.056,177.297 121.984,177.297C109.009,177.297 98.333,187.973 98.333,200.948C98.333,213.923 109.009,224.599 121.984,224.599C134.959,224.599 145.635,213.923 145.635,200.948C145.635,200.948 145.635,200.948 145.635,200.948C145.677,188.04 135.108,177.374 122.2,177.3L122.2,177.298Z" style="fill:white;fill-rule:nonzero;stroke:white;stroke-width:1px;"/>
        <path d="M122.2,307.906C122.117,307.907 122.033,307.907 121.95,307.907C106.809,307.907 94.35,295.448 94.35,280.307C94.35,265.166 106.809,252.707 121.95,252.707C137.09,252.707 149.549,265.166 149.55,280.306C149.601,295.372 137.265,307.82 122.2,307.906ZM122.2,256.654C122.128,256.653 122.056,256.653 121.984,256.653C109.009,256.653 98.333,267.329 98.333,280.304C98.333,293.279 109.009,303.955 121.984,303.955C134.958,303.955 145.634,293.279 145.635,280.305C145.679,267.395 135.109,256.728 122.2,256.654Z" style="fill:white;fill-rule:nonzero;stroke:white;stroke-width:1px;"/>
        <path d="M122.2,387.256C122.116,387.257 122.033,387.257 121.949,387.257C106.808,387.257 94.349,374.798 94.349,359.657C94.349,344.516 106.808,332.057 121.949,332.057C137.089,332.057 149.548,344.516 149.549,359.656C149.601,374.722 137.266,387.171 122.2,387.256ZM122.2,336.009C122.128,336.008 122.057,336.008 121.985,336.008C109.012,336.008 98.336,346.684 98.336,359.657C98.336,372.63 109.012,383.306 121.985,383.306C134.958,383.306 145.634,372.63 145.634,359.657C145.634,359.657 145.634,359.657 145.634,359.657C145.677,346.748 135.108,336.083 122.2,336.009Z" style="fill:white;fill-rule:nonzero;stroke:white;stroke-width:1px;"/>
        <path d="M123.074,57.539L107.778,41.439L114.135,35.288L123.296,44.93L150.151,18.603L156.288,24.978L123.074,57.539Z" style="fill:white;fill-rule:nonzero;stroke:white;stroke-width:1px;"/>
        <path d="M126.487,131.531L111.192,115.431L117.549,109.28L126.709,118.922L153.564,92.596L159.702,98.971L126.487,131.531Z" style="fill:rgb(93,172,223);fill-rule:nonzero;"/>
        <path d="M384.515,553.55C383.535,553.554 382.572,553.285 381.736,552.774C375.988,549.297 377.313,534.893 377.855,530.56C380.794,507.099 393.486,485.5 411.805,472.785C422.264,465.526 434.248,460.909 445.839,456.445C454.156,453.245 462.756,449.929 470.652,445.68C490.905,434.641 507.1,417.401 516.852,396.498C517.335,395.497 518.353,394.858 519.464,394.858C521.055,394.858 522.364,396.167 522.364,397.758C522.364,397.994 522.335,398.23 522.278,398.459C518.667,412.641 514.063,429.267 507.289,445.044C497.724,467.325 485.12,484.719 469.827,496.744C459.901,504.544 448.535,510.315 437.542,515.891C430.978,519.221 424.191,522.665 417.822,526.491C412.5,529.649 407.47,533.274 402.791,537.324C400.8,539.229 398.985,541.311 397.369,543.543C395.13,546.431 392.814,549.417 390.102,551.357C388.511,552.648 386.559,553.414 384.515,553.55ZM414.024,476.039C396.609,488.128 384.54,508.694 381.739,531.056C380.603,540.125 381.467,548.005 383.749,549.385C384.849,550.057 386.786,548.885 387.84,548.133C390.085,546.528 392.222,543.772 394.288,541.108C396.053,538.674 398.041,536.409 400.225,534.342C405.081,530.138 410.301,526.374 415.825,523.096C422.314,519.196 429.164,515.723 435.789,512.362C446.612,506.871 457.804,501.193 467.426,493.627C482.196,482.014 494.4,465.14 503.703,443.474C508.727,431.394 512.896,418.977 516.18,406.313C505.894,424.384 490.762,439.228 472.497,449.166C464.386,453.531 455.668,456.888 447.238,460.136C435.86,464.517 424.1,469.048 414.024,476.039Z" style="fill:white;fill-rule:nonzero;stroke:white;stroke-width:1px;"/>
        <path d="M388.1,539.834C387.884,539.834 387.669,539.798 387.465,539.726C386.446,539.368 385.899,538.239 386.249,537.217C392.427,519.097 404.455,503.534 420.433,492.988C428.398,487.761 437.198,483.915 445.708,480.195C450.953,477.902 456.377,475.531 461.508,472.874C477.702,464.49 487.859,454.174 491.697,442.211C491.953,441.401 492.71,440.846 493.559,440.846C493.764,440.846 493.967,440.878 494.161,440.941C495.186,441.281 495.752,442.401 495.42,443.428C491.252,456.421 480.444,467.511 463.295,476.388C458.049,479.104 452.566,481.502 447.263,483.819C438.902,487.475 430.255,491.254 422.563,496.3C407.318,506.362 395.841,521.211 389.946,538.5C389.679,539.291 388.935,539.829 388.1,539.834Z" style="fill:white;fill-rule:nonzero;stroke:white;stroke-width:1px;"/>
        <path d="M372.932,494.258C371.262,494.241 369.664,493.567 368.485,492.384C358.877,483.267 361.45,439.862 362.046,435.224C363.389,424.71 366.05,414.406 369.965,404.556L370.328,403.648L371.262,403.389C381.012,400.617 387.781,391.637 387.762,381.501L387.762,371.285L388.05,370.81C391.833,364.576 395.815,357.91 399.27,350.992C404.512,340.492 408.602,329.208 412.558,318.292C415.209,310.975 417.95,303.41 421.027,296.106C428.248,278.952 436.434,266.006 446.053,256.541C447.78,254.797 450.502,254.468 452.595,255.749C454.704,256.999 455.705,259.539 455.015,261.891C450.821,276.77 450.369,292.629 450.442,304.783C450.469,309.61 450.587,314.53 450.7,319.289C451.028,332.989 451.366,347.164 449.588,361.05C445.97,389.285 433.303,417.834 412.959,443.613C409.576,447.896 405.998,452.113 402.537,456.195C399.185,460.149 395.718,464.238 392.453,468.355C389.096,472.506 385.958,476.831 383.053,481.31C382.698,481.867 382.129,483.062 381.527,484.329C378.961,489.729 376.933,493.587 374.193,494.129C373.778,494.213 373.356,494.256 372.932,494.258ZM373.248,406.916C369.647,416.188 367.189,425.865 365.928,435.732C364.861,444.038 363.95,482.659 371.167,489.506C371.738,490.141 372.605,490.427 373.441,490.256C374.599,489.761 376.979,484.756 377.995,482.621C378.522,481.441 379.111,480.29 379.76,479.172C382.738,474.578 385.955,470.144 389.398,465.888C392.698,461.72 396.191,457.607 399.564,453.627C403.003,449.573 406.558,445.381 409.899,441.151C429.799,415.938 442.18,388.064 445.707,360.544C447.447,346.959 447.112,332.944 446.788,319.385C446.673,314.609 446.556,309.67 446.529,304.807C446.453,292.393 446.922,276.171 451.251,260.812C451.462,260.174 451.186,259.47 450.597,259.146C450.022,258.778 449.26,258.871 448.791,259.367C439.547,268.467 431.645,280.988 424.631,297.652C421.593,304.864 418.87,312.381 416.231,319.652C412.231,330.673 408.107,342.071 402.763,352.772C399.329,359.649 395.413,366.232 391.673,372.4L391.673,381.5C391.691,393.04 384.221,403.344 373.248,406.916Z" style="fill:white;fill-rule:nonzero;stroke:white;stroke-width:1px;"/>
        <path d="M378.337,457.9C378.228,457.9 378.119,457.891 378.012,457.873C376.949,457.688 376.224,456.663 376.405,455.599C379.405,437.488 389.24,421.657 398.751,406.347C407.271,392.632 416.081,378.447 419.782,362.826C421.518,355.492 422.182,347.641 422.818,340.048C423.944,326.648 425.11,312.799 432.189,301.055C432.54,300.468 433.176,300.107 433.86,300.107C434.219,300.107 434.572,300.206 434.878,300.394C435.797,300.962 436.092,302.182 435.534,303.108C428.934,314.059 427.857,326.844 426.718,340.381C426.067,348.12 425.393,356.122 423.589,363.744C419.739,379.999 410.755,394.461 402.067,408.444C392.761,423.426 383.136,438.918 380.267,456.25C380.114,457.194 379.293,457.896 378.337,457.9Z" style="fill:white;fill-rule:nonzero;stroke:white;stroke-width:1px;"/>
        <g>
            <path d="M184.134,589.119C182.812,589.092 181.501,588.872 180.243,588.465C176.943,587.465 173.703,585.302 170.568,583.214C168.248,581.556 165.782,580.112 163.2,578.9C157.253,576.469 151.101,574.571 144.817,573.23C137.273,571.576 129.438,570.43 121.86,569.33C109.177,567.482 96.06,565.57 83.736,561.195C64.736,554.453 46.711,541.578 30.148,522.926C18.41,509.716 8.563,494.965 0.477,482.277C-0.352,481.013 -0.067,479.303 1.127,478.377C2.304,477.409 4.055,477.531 5.087,478.653C21.52,495.968 43.104,507.534 66.622,511.629C75.822,513.195 85.422,513.615 94.699,514.02C107.621,514.584 120.983,515.168 133.664,518.835C155.876,525.258 175.321,542.214 185.681,564.19C187.581,568.226 193.438,581.8 188.931,587.09C187.728,588.464 185.958,589.212 184.134,589.119ZM8.523,487.5C15.904,499.005 24.103,509.964 33.058,520.291C49.179,538.443 66.664,550.952 85.031,557.47C96.996,561.718 109.919,563.601 122.415,565.422C130.061,566.536 137.966,567.688 145.645,569.372C152.155,570.763 158.529,572.73 164.69,575.251C167.507,576.552 170.197,578.115 172.723,579.917C175.758,581.936 178.623,583.845 181.374,584.682C182.985,585.172 185.088,585.542 185.963,584.517C188.038,582.079 185.546,573.098 182.147,565.887C172.262,544.917 153.735,528.747 132.586,522.632C120.35,519.093 107.224,518.52 94.53,517.966C85.13,517.555 75.408,517.13 65.971,515.523C44.56,511.802 24.636,502.083 8.523,487.5Z" style="fill:white;fill-rule:nonzero;stroke:white;stroke-width:1px;"/>
            <path d="M177.905,576.635C177.293,576.635 176.715,576.347 176.348,575.857C164.929,560.821 148.788,550.043 130.524,545.257C121.279,542.841 111.487,541.979 102.024,541.146C96.024,540.618 89.817,540.073 83.748,539.138C63.918,536.082 49.679,528.788 41.425,517.457C40.79,516.583 40.978,515.343 41.843,514.696C42.178,514.447 42.585,514.312 43.003,514.312C43.627,514.312 44.214,514.612 44.579,515.118C52.195,525.573 65.572,532.341 84.339,535.232C90.282,536.148 96.424,536.688 102.363,537.211C111.992,538.058 121.949,538.934 131.51,541.432C150.624,546.443 167.515,557.725 179.464,573.463C180.116,574.325 179.95,575.57 179.095,576.231C178.754,576.494 178.335,576.637 177.905,576.635Z" style="fill:white;fill-rule:nonzero;stroke:white;stroke-width:1px;"/>
            <path d="M177.386,527.278C174.653,527.278 171.554,524.285 167.543,520.113C166.536,519.066 165.585,518.076 165.052,517.649C160.742,514.212 156.252,511.007 151.601,508.049C147.093,505.117 142.401,502.284 137.857,499.549C133.078,496.664 128.136,493.681 123.373,490.562C94.991,472.023 73.357,448.256 60.81,421.83C54.643,408.846 50.485,394.877 46.464,381.368C45.064,376.668 43.619,371.812 42.112,367.078C38.312,355.138 32.812,339.745 23.95,326.601C23.343,325.688 23.019,324.616 23.019,323.52C23.019,320.468 25.531,317.956 28.583,317.956C29.429,317.956 30.264,318.149 31.024,318.52C43.585,324.635 55.813,334.6 68.409,349C70.037,350.857 71.609,352.718 73.058,354.452L73.52,355.003L73.52,381.503C73.498,389.107 77.296,396.235 83.62,400.457C87.283,402.915 91.598,404.224 96.01,404.216L116.703,404.216L117.257,404.705C120.38,407.463 123.618,410.214 126.751,412.873C134.743,419.66 143.007,426.673 150.236,434.573C158.706,443.865 165.747,454.365 171.128,465.729C173.181,470.051 189.455,511.504 182.917,523.643C181.94,525.613 180.037,526.966 177.856,527.243C177.7,527.265 177.543,527.277 177.386,527.278ZM28.567,321.894C28.076,321.904 27.612,322.128 27.299,322.507C26.821,323.02 26.773,323.807 27.185,324.375C36.326,337.938 41.956,353.675 45.84,365.868C47.357,370.637 48.809,375.514 50.213,380.23C54.191,393.6 58.3,407.413 64.34,420.121C76.575,445.89 97.725,469.1 125.5,487.245C130.2,490.326 135.115,493.289 139.865,496.156C144.432,498.913 149.156,501.764 153.718,504.731C158.482,507.761 163.081,511.043 167.494,514.564C168.497,515.444 169.45,516.379 170.35,517.364C172.044,519.126 176.004,523.245 177.377,523.329C178.302,523.21 179.1,522.614 179.477,521.76C184.412,512.598 171.277,475.189 167.598,467.441C162.386,456.431 155.565,446.257 147.359,437.255C140.299,429.54 132.131,422.603 124.231,415.897C121.268,413.381 118.211,410.785 115.231,408.167L96.014,408.167C90.832,408.176 85.764,406.638 81.462,403.75C74.037,398.794 69.579,390.426 69.606,381.5L69.606,356.447C68.306,354.892 66.906,353.247 65.476,351.613C53.231,337.621 41.406,327.96 29.326,322.078C29.09,321.96 28.831,321.897 28.567,321.894Z" style="fill:white;fill-rule:nonzero;stroke:white;stroke-width:1px;"/>
            <path d="M161.612,493.274C160.884,493.273 160.214,492.866 159.879,492.22C151.518,476.2 137.038,464.2 123.036,452.6C109.973,441.772 96.464,430.575 87.482,415.948C84.966,411.755 82.722,407.405 80.763,402.924C80.318,401.939 80.756,400.763 81.736,400.309C81.99,400.193 82.266,400.133 82.546,400.133C83.315,400.133 84.015,400.589 84.327,401.292C86.217,405.618 88.383,409.819 90.81,413.868C99.45,427.938 112.703,438.923 125.52,449.546C139.82,461.402 154.613,473.661 163.342,490.383C163.843,491.34 163.475,492.54 162.523,493.051C162.242,493.199 161.929,493.276 161.612,493.274Z" style="fill:white;fill-rule:nonzero;stroke:white;stroke-width:1px;"/>
            <path d="M71.565,379.428C70.835,379.428 70.164,379.019 69.83,378.37C65.774,370.559 61.498,364.889 56.374,360.526C55.553,359.823 55.448,358.572 56.141,357.742C56.51,357.298 57.059,357.041 57.636,357.041C58.099,357.041 58.547,357.206 58.899,357.507C64.422,362.207 68.999,368.257 73.299,376.536C73.798,377.494 73.427,378.693 72.474,379.202C72.194,379.351 71.882,379.429 71.565,379.428Z" style="fill:white;fill-rule:nonzero;stroke:white;stroke-width:1px;"/>
        </g>
        <path d="M122.475,226.6C124.118,230.79 126.248,235 129.845,237.672C133.442,240.344 138.845,240.993 142.254,238.08C145.025,235.711 145.815,231.596 145.097,228.003C144.379,224.41 142.397,221.219 140.373,218.179C135.098,210.268 129.247,202.756 122.867,195.706C121.839,194.57 120.609,193.36 119.083,193.376C112.462,193.45 121.073,223.026 122.475,226.6Z" style="fill:rgb(247,166,154);fill-rule:nonzero;"/>
        <path d="M385.1,475.358C385.375,480.593 388.949,485.191 393.319,488.024C397.689,490.857 402.809,492.224 407.835,493.547C409.511,494.108 411.282,494.333 413.045,494.21C414.846,494.049 416.396,492.848 417,491.144C417.583,488.96 415.977,486.855 414.481,485.171C409.518,479.581 385.1,449.7 385.1,475.358Z" style="fill:rgb(247,166,154);fill-rule:nonzero;"/>
        <path d="M268.188,539.382L266.169,565.326C264.302,589.579 262.428,613.84 260.545,638.11C260.253,641.826 259.898,645.759 257.74,648.795C255.582,651.831 250.985,653.42 248.104,651.089C246.415,623.236 244.726,595.391 243.038,567.555C242.518,558.997 241.998,550.439 241.477,541.88C243.826,541.547 246.187,541.304 248.522,541.099C255.06,540.522 261.675,540.2 268.188,539.382Z" style="fill:rgb(247,166,154);fill-rule:nonzero;"/>
        <path d="M342.643,627.506C337.806,628.582 334.429,622.906 332.715,618.217C325.301,597.975 317.887,577.737 310.473,557.502C306.893,547.726 303.317,537.955 299.745,528.188C303.77,525.728 307.68,523.051 311.578,520.412C315.996,517.412 320.49,514.441 325.162,511.84C328.005,525.101 330.845,538.362 333.68,551.621C338.085,572.236 342.494,592.859 346.909,613.49C348.051,618.819 347.937,626.327 342.643,627.506Z" style="fill:rgb(247,166,154);fill-rule:nonzero;"/>
        <path d="M365.256,408.165L96.014,408.165C90.832,408.174 85.764,406.636 81.462,403.748C74.038,398.793 69.579,390.426 69.606,381.5L69.606,26.664C69.553,12.113 81.463,0.087 96.014,0L365.256,0C379.81,0.083 391.727,12.109 391.677,26.664L391.677,381.5C391.699,393.403 383.75,403.947 372.3,407.2C370.008,407.845 367.637,408.169 365.256,408.165ZM96.014,3.95C83.619,4.025 73.474,14.269 73.52,26.664L73.52,381.5C73.498,389.104 77.296,396.232 83.62,400.454C87.284,402.912 91.599,404.221 96.011,404.213L365.256,404.213C367.284,404.216 369.303,403.94 371.256,403.39C381.011,400.621 387.785,391.64 387.766,381.5L387.766,26.664C387.808,14.264 377.655,4.019 365.256,3.95L96.014,3.95Z" style="fill:rgb(93,172,223);fill-rule:nonzero;"/>
        <g>
            <path d="M369.349,493.3C355.435,460.553 341.525,427.806 327.62,395.059C322.732,383.559 317.667,371.767 309.072,362.735C288.239,340.826 251.672,337.777 224.75,327.015C196.401,315.677 180.19,280.124 162.771,256.025C158.29,249.836 152.057,242.905 144.605,244.417C136.429,246.07 133.725,256.511 133.865,264.929C134.614,309.078 165.945,345.784 182.919,386.488C187.63,397.801 191.247,409.539 193.719,421.541C195.98,419.772 198.769,418.811 201.64,418.812C208.752,418.874 214.569,424.742 214.569,431.854C214.569,438.967 208.752,444.835 201.64,444.897C200.064,444.897 198.502,444.606 197.032,444.039C198.546,461.062 197.803,478.211 194.823,495.039C193.871,500.381 192.691,505.711 191.7,511.053C191.929,511.053 192.17,511.041 192.4,511.041C199.214,511.041 204.821,516.648 204.821,523.462C204.821,530.276 199.214,535.883 192.4,535.883C191.611,535.884 190.824,535.807 190.051,535.652C191.142,545.325 194.951,554.793 202.429,560.776C203.223,561.414 204.053,562.005 204.917,562.544C207.231,558.267 210.455,554.549 214.362,551.654C222.22,545.889 231.818,543.365 241.543,542.045C243.892,541.712 246.253,541.469 248.589,541.264C255.127,540.687 261.741,540.364 268.254,539.547C273.715,538.954 279.098,537.785 284.313,536.062C289.76,534.094 294.978,531.542 299.877,528.452C303.902,525.992 307.812,523.314 311.71,520.675C316.128,517.675 320.622,514.705 325.294,512.104C329.773,509.548 334.532,507.514 339.475,506.044C349.567,503.174 361.107,503.661 369.664,509.785C372.106,511.553 374.184,513.776 375.783,516.332C375.634,508.523 372.472,500.656 369.349,493.3ZM217.019,375.958C216.995,375.958 216.97,375.958 216.946,375.958C212.177,375.958 208.253,372.034 208.253,367.265C208.253,362.496 212.177,358.572 216.946,358.572C221.712,358.572 225.635,362.492 225.639,367.258C225.639,367.272 225.639,367.287 225.639,367.301C225.639,372.036 221.754,375.938 217.019,375.958ZM236.1,494.583C236.064,494.583 236.029,494.583 235.993,494.583C229.179,494.583 223.572,488.976 223.572,482.162C223.572,475.349 229.179,469.741 235.993,469.741C242.805,469.741 248.41,475.344 248.414,482.156C248.414,482.177 248.414,482.198 248.414,482.219C248.414,488.983 242.864,494.556 236.1,494.583ZM240.416,417.571C240.38,417.571 240.344,417.571 240.308,417.571C233.835,417.571 228.508,412.245 228.508,405.771C228.508,399.298 233.835,393.971 240.308,393.971C246.781,393.971 252.108,399.298 252.108,405.771C252.135,412.214 246.859,417.539 240.416,417.571ZM271.177,462.592C271.148,462.592 271.119,462.592 271.09,462.592C265.13,462.592 260.225,457.688 260.225,451.727C260.225,445.767 265.13,440.862 271.09,440.862C277.05,440.862 281.955,445.767 281.955,451.727L281.955,451.779C281.955,457.698 277.096,462.573 271.177,462.592ZM287.185,420.672C287.153,420.672 287.121,420.672 287.089,420.672C281.298,420.672 276.532,415.907 276.532,410.115C276.532,404.324 281.298,399.558 287.089,399.558C292.88,399.558 297.646,404.324 297.646,410.115C297.672,415.88 292.95,420.645 287.185,420.672Z" style="fill:rgb(93,172,223);fill-rule:nonzero;"/>
            <path d="M204.717,523.461C204.746,530.248 199.187,535.857 192.4,535.889C191.611,535.89 190.824,535.813 190.051,535.658C189.813,533.63 189.695,531.589 189.696,529.547C189.791,523.336 190.461,517.147 191.696,511.059C191.925,511.059 192.166,511.047 192.396,511.047C199.162,511.07 204.717,516.644 204.717,523.411C204.717,523.428 204.717,523.444 204.717,523.461Z" style="fill:rgb(62,119,185);fill-rule:nonzero;"/>
            <path d="M225.639,367.259C225.6,371.957 221.724,375.801 217.025,375.801C212.3,375.801 208.411,371.912 208.411,367.187C208.411,362.464 212.296,358.576 217.019,358.573C221.765,358.594 225.654,362.513 225.639,367.259Z" style="fill:rgb(62,119,185);fill-rule:nonzero;"/>
            <path d="M281.955,451.728C281.904,457.602 277.058,462.407 271.183,462.407C265.274,462.407 260.411,457.544 260.411,451.635C260.411,445.728 265.27,440.867 271.177,440.863C277.096,440.883 281.955,445.759 281.955,451.678C281.955,451.695 281.955,451.711 281.955,451.728Z" style="fill:rgb(62,119,185);fill-rule:nonzero;"/>
            <path d="M243.107,567.726C241.609,567.842 240.111,567.945 238.613,568.034C227.06,568.726 214.531,568.674 204.92,562.55C207.234,558.273 210.458,554.555 214.365,551.66C222.223,545.895 231.821,543.371 241.546,542.051C242.067,550.61 242.588,559.169 243.107,567.726Z" style="fill:rgb(62,119,185);fill-rule:nonzero;"/>
            <path d="M310.608,557.772C295.958,561.094 281.149,563.673 266.238,565.497L268.257,539.553C273.718,538.96 279.101,537.791 284.316,536.068C289.763,534.1 294.981,531.548 299.88,528.458C303.449,538.233 307.025,548.005 310.608,557.772Z" style="fill:rgb(62,119,185);fill-rule:nonzero;"/>
            <path d="M375.786,516.338C375.849,518.777 375.576,521.213 374.974,523.577C371.089,538.515 354.585,545.741 339.909,550.123C337.878,550.723 335.859,551.314 333.816,551.891C330.972,538.63 328.133,525.37 325.3,512.11C329.779,509.554 334.538,507.52 339.481,506.05C349.573,503.18 361.113,503.667 369.67,509.791C372.111,511.559 374.188,513.782 375.786,516.338Z" style="fill:rgb(62,119,185);fill-rule:nonzero;"/>
            <path d="M241.546,542.051C241.533,541.834 241.521,541.603 241.508,541.385" style="fill:none;fill-rule:nonzero;"/>
            <path d="M214.568,431.857C214.599,438.979 208.766,444.866 201.644,444.9C200.068,444.9 198.506,444.609 197.036,444.042C196.366,436.484 195.259,428.972 193.723,421.542C195.984,419.773 198.773,418.812 201.644,418.813C208.766,418.847 214.599,424.735 214.568,431.857Z" style="fill:rgb(62,119,185);fill-rule:nonzero;"/>
            <path d="M252.108,405.772C252.053,412.152 246.789,417.372 240.408,417.372C233.99,417.372 228.708,412.09 228.708,405.672C228.708,399.254 233.99,393.972 240.408,393.972C240.411,393.972 240.413,393.972 240.416,393.972C246.859,394.003 252.137,399.329 252.108,405.772Z" style="fill:rgb(62,119,185);fill-rule:nonzero;"/>
            <path d="M248.414,482.156C248.356,488.867 242.818,494.357 236.106,494.357C229.354,494.357 223.798,488.801 223.798,482.049C223.798,475.299 229.35,469.745 236.1,469.741C242.883,469.769 248.441,475.373 248.414,482.156Z" style="fill:rgb(62,119,185);fill-rule:nonzero;"/>
            <path d="M297.646,410.115C297.594,415.817 292.888,420.48 287.185,420.48C281.447,420.48 276.724,415.758 276.724,410.019C276.724,404.28 281.446,399.558 287.185,399.558C292.95,399.585 297.671,404.35 297.646,410.115Z" style="fill:rgb(62,119,185);fill-rule:nonzero;"/>
        </g>
        <path d="M379.333,438C382.933,442.671 386.667,448.009 386.115,453.9C385.415,461.426 377.489,466.659 369.998,466.631C362.507,466.603 355.604,462.597 349.636,458.031C330.409,443.153 317.205,421.803 312.482,397.955C311.182,391.307 310.34,380.831 315.16,375.236C322.322,366.92 330.55,381.327 336.119,387.259C351.324,403.453 365.729,420.367 379.333,438Z" style="fill:rgb(93,172,223);fill-rule:nonzero;"/>
        <path d="M205.778,222.771C189.478,240.512 184.795,267.692 191.484,291.071C196.996,310.34 209.398,326.983 224.684,339.543C241.243,353.143 255.045,367.809 276.099,374.927C296.388,381.787 319.736,381.071 338.153,370.077C352.847,361.305 364.132,344.263 360.831,327.358C357.648,311.05 342.819,300.302 330.753,288.988C319.168,278.099 309.377,265.446 301.743,251.5C291.965,233.664 284.092,214.312 263.287,207.436C244.688,201.29 222.7,206.5 208.5,220C207.559,220.896 206.651,221.82 205.778,222.771Z" style="fill:rgb(250,122,83);fill-rule:nonzero;"/>
    </g>
</svg>
